# xmcd CD database file
#
# Track frame offsets:
#	150
#	18488
#	38323
#	52208
#	69523
#	83695
#	100578
#	119628
#	137773
#	154050
#	166000
#	178525
#	200150
#	213015
#
# Disc length: 2935 seconds
#
# Revision: 2
# Processed by: cddbd v1.4PL0 Copyright (c) Steve Scherf et al.
# Submitted via: CDex 1.51
#
DISCID=b50b750e
DTITLE=Reidar Larsen - Last Train Home
DYEAR=1990
DGENRE=Blues
TTITLE0=Last Train Home
TTITLE1=Better than Nothing
TTITLE2=Wild Wild Woman
TTITLE3=Don't Turn Away
TTITLE4=Boggie Masters
TTITLE5=Boat Dock
TTITLE6=Daddy Longlegs
TTITLE7=No Tell Hotel
TTITLE8=(Woman With A) High I.Q.
TTITLE9=Shuffle The Pack
TTITLE10=Talking Woman Blues
TTITLE11=Strange Thing
TTITLE12=Neighbour Neighbour
TTITLE13=Evening Chimes
EXTD=Reidar Larsen - vokal, piano, orgel\nGeir Samsonsen - gitar\nTorkild Viig - bass\nPer Vervik - trommer YEAR: 1990
EXTT0=
EXTT1=
EXTT2=
EXTT3=
EXTT4=
EXTT5=
EXTT6=
EXTT7=
EXTT8=
EXTT9=
EXTT10=
EXTT11=
EXTT12=
EXTT13=
PLAYORDER=
